Coordinates
version=1
nRows=27
nColumns=38
inDegrees=no

Units are S.I. units (second, meters, Newtons, ...)
If the header above contains a line with 'inDegrees', this indicates whether rotational values are in degrees (yes) or radians (no).

endheader
time	pelvis_tilt	pelvis_list	pelvis_rotation	pelvis_tx	pelvis_ty	pelvis_tz	hip_flexion_r	hip_adduction_r	hip_rotation_r	knee_angle_r	ankle_angle_r	subtalar_angle_r	mtp_angle_r	hip_flexion_l	hip_adduction_l	hip_rotation_l	knee_angle_l	ankle_angle_l	subtalar_angle_l	mtp_angle_l	lumbar_extension	lumbar_bending	lumbar_rotation	arm_flex_r	arm_add_r	arm_rot_r	elbow_flex_r	pro_sup_r	wrist_flex_r	wrist_dev_r	arm_flex_l	arm_add_l	arm_rot_l	elbow_flex_l	pro_sup_l	wrist_flex_l	wrist_dev_l
0	-1.61763	1.48088	-3.08627	0.69322	-0.800575	0.939269	0.183864	-0.215321	-0.0656706	1.22374	-0.160682	0	0	0.356707	0.154723	-0.327952	0.440172	0.166792	0	0	-0.0479755	-0.182715	-0.116311	-0.0958374	-0.134507	-0.0908862	0.322709	1.33541	0	0	-0.364523	-0.563325	0.418101	0.744034	0.689922	0	0
0.01	-1.60723	1.48178	-3.09	0.692085	-0.790139	0.941326	0.21232	-0.210429	-0.0520198	1.24905	-0.136043	0	0	0.339146	0.160359	-0.314548	0.429755	0.171227	0	0	-0.0466279	-0.183286	-0.118763	-0.093226	-0.134832	-0.0817865	0.320546	1.32459	0	0	-0.359741	-0.561979	0.4102	0.744905	0.688383	0	0
0.02	-1.61407	1.46705	-3.0699	0.690223	-0.779995	0.944929	0.235034	-0.226804	-0.0445289	1.26485	-0.119032	0	0	0.315534	0.180162	-0.318914	0.412646	0.166402	0	0	-0.0515651	-0.201597	-0.129441	-0.0881752	-0.130378	-0.0757464	0.316001	1.31231	0	0	-0.353441	-0.563232	0.403087	0.743387	0.685145	0	0
0.03	-1.62232	1.48715	-3.05857	0.689567	-0.768217	0.946177	0.256856	-0.198203	-0.034103	1.27169	-0.105421	0	0	0.293254	0.168182	-0.288919	0.399231	0.18486	0	0	-0.0473743	-0.179774	-0.127575	-0.0908999	-0.136326	-0.0645415	0.321612	1.29406	0	0	-0.352252	-0.557819	0.396908	0.747417	0.682168	0	0
0.04	-1.65748	1.49347	-3.0158	0.68887	-0.757443	0.948937	0.283117	-0.185467	-0.0392709	1.29059	0.0178826	0	0	0.26642	0.166627	-0.275454	0.37952	0.18945	0	0	-0.0507977	-0.174286	-0.13115	-0.080508	-0.128233	-0.124146	0.304367	1.36474	0	0	-0.346969	-0.556677	0.391831	0.750548	0.672873	0	0
0.05	-1.66877	1.49459	-2.99246	0.686632	-0.746559	0.951225	0.293312	-0.188548	-0.0267862	1.26876	-0.0864469	0	0	0.240059	0.173893	-0.257726	0.357067	0.190309	0	0	-0.0524938	-0.172361	-0.139628	-0.0782957	-0.129225	-0.122461	0.299898	1.35657	0	0	-0.341657	-0.554555	0.390693	0.754207	0.671871	0	0
0.06	-1.68808	1.5005	-2.96076	0.684943	-0.736037	0.953354	0.310926	-0.183333	-0.0275456	1.26068	-0.0765862	0	0	0.216564	0.173201	-0.241912	0.339718	0.192746	0	0	-0.0550058	-0.165691	-0.14785	-0.0759113	-0.129626	-0.119368	0.293972	1.34787	0	0	-0.334312	-0.554169	0.393301	0.75822	0.673101	0	0
0.07	-1.71313	1.50656	-2.9219	0.683121	-0.725662	0.955244	0.327573	-0.179849	-0.031628	1.24852	-0.0650849	0	0	0.194061	0.171689	-0.225545	0.323845	0.194343	0	0	-0.0583439	-0.158484	-0.156958	-0.07441	-0.130195	-0.116141	0.291753	1.33798	0	0	-0.325427	-0.554942	0.399394	0.762135	0.67627	0	0
0.08	-1.73914	1.51224	-2.88094	0.681196	-0.715457	0.956869	0.343593	-0.178302	-0.0380928	1.2326	-0.0516361	0	0	0.17253	0.170087	-0.208847	0.308517	0.194546	0	0	-0.0623886	-0.151499	-0.166738	-0.0736157	-0.130856	-0.112619	0.292298	1.32718	0	0	-0.314915	-0.556522	0.407431	0.765333	0.680864	0	0
0.09	-1.77889	1.51718	-2.82535	0.67921	-0.705407	0.958309	0.357361	-0.178159	-0.0459614	1.21272	-0.0376228	0	0	0.15085	0.168615	-0.191475	0.293272	0.192972	0	0	-0.0675877	-0.145055	-0.176956	-0.0736696	-0.131532	-0.107692	0.294131	1.31616	0	0	-0.302592	-0.559001	0.41845	0.768066	0.687194	0	0
0.1	-1.8584	1.52268	-2.73313	0.67661	-0.695551	0.959375	0.371244	-0.187305	-0.0539807	1.1896	-0.0174099	0	0	0.130511	0.171689	-0.16686	0.281334	0.186183	0	0	-0.0738346	-0.135966	-0.185699	-0.072802	-0.133897	-0.102281	0.298254	1.30435	0	0	-0.289871	-0.560455	0.430425	0.771611	0.693774	0	0
0.11	-1.86718	1.52387	-2.70542	0.67547	-0.685535	0.960376	0.38352	-0.184405	-0.0657717	1.16594	-0.00785973	0	0	0.109769	0.166143	-0.160907	0.266999	0.189386	0	0	-0.0786841	-0.135999	-0.197751	-0.074107	-0.132655	-0.0954273	0.300822	1.29225	0	0	-0.276	-0.565679	0.441968	0.774223	0.698963	0	0
0.12	-1.9557	1.52598	-2.60813	0.672698	-0.676088	0.961163	0.404839	-0.198895	-0.0725297	1.15267	0.00731922	0	0	0.0854653	0.173134	-0.129696	0.246671	0.175534	0	0	-0.0867451	-0.129348	-0.202255	-0.0670909	-0.130067	-0.144621	0.293688	1.35285	0	0	-0.258971	-0.565666	0.455591	0.770699	0.72897	0	0
0.13	-1.99642	1.52544	-2.5546	0.671157	-0.666143	0.961642	0.416304	-0.207395	-0.0822066	1.12455	0.0167052	0	0	0.0623526	0.174934	-0.111401	0.229934	0.171644	0	0	-0.0934451	-0.128958	-0.2107	-0.0671785	-0.130151	-0.139081	0.296358	1.34558	0	0	-0.245592	-0.569896	0.468583	0.77227	0.738	0	0
0.14	-2.03236	1.52316	-2.50677	0.669833	-0.656188	0.961866	0.427637	-0.222335	-0.100334	1.09727	0.0264589	0	0	0.0393681	0.177454	-0.0940265	0.215446	0.169769	0	0	-0.101088	-0.13046	-0.217995	-0.0676635	-0.13005	-0.132467	0.298565	1.33821	0	0	-0.231622	-0.574924	0.483095	0.774335	0.746379	0	0
0.15	-2.08018	1.5217	-2.44867	0.668699	-0.64636	0.96203	0.436815	-0.231561	-0.112523	1.06485	0.0372408	0	0	0.0176352	0.177774	-0.0783038	0.202986	0.168983	0	0	-0.109239	-0.130725	-0.223563	-0.0676449	-0.130062	-0.125638	0.300432	1.32968	0	0	-0.216014	-0.578943	0.499267	0.773713	0.754273	0	0
0.16	-2.13297	1.52024	-2.38615	0.66773	-0.636596	0.962079	0.44463	-0.239388	-0.124892	1.02992	0.0466273	0	0	-0.00323478	0.176954	-0.063045	0.192221	0.168877	0	0	-0.118222	-0.130804	-0.229101	-0.0667642	-0.129861	-0.118169	0.302635	1.31989	0	0	-0.200288	-0.582245	0.513968	0.77213	0.76092	0	0
0.17	-2.18722	1.5186	-2.32468	0.667109	-0.626856	0.962032	0.451694	-0.245871	-0.136906	0.993134	0.0540336	0	0	-0.0232114	0.175287	-0.0505874	0.183452	0.170508	0	0	-0.127537	-0.130919	-0.232133	-0.0659427	-0.12968	-0.110559	0.30584	1.30913	0	0	-0.183969	-0.584179	0.524192	0.770137	0.764446	0	0
0.18	-2.18653	1.51679	-2.31527	0.667526	-0.616974	0.961877	0.459834	-0.242779	-0.141906	0.955895	0.0561002	0	0	-0.0408503	0.168594	-0.0502319	0.174757	0.178951	0	0	-0.135787	-0.134769	-0.235875	-0.0665422	-0.127598	-0.102546	0.308804	1.29783	0	0	-0.167192	-0.587061	0.533524	0.767716	0.767023	0	0
0.19	-2.27692	1.51314	-2.22193	0.667216	-0.607037	0.961885	0.462697	-0.245377	-0.150585	0.914883	0.0644822	0	0	-0.0662937	0.166263	-0.0370189	0.160402	0.178784	0	0	-0.149162	-0.133749	-0.233097	-0.0602875	-0.122149	-0.149439	0.30187	1.35692	0	0	-0.149018	-0.585442	0.540178	0.760564	0.794467	0	0
0.2	-2.33789	1.51076	-2.159	0.667148	-0.597214	0.961524	0.467884	-0.24724	-0.159694	0.874273	0.071274	0	0	-0.0868299	0.163191	-0.0285483	0.151372	0.181831	0	0	-0.160765	-0.132977	-0.230632	-0.058066	-0.121686	-0.144864	0.303745	1.34966	0	0	-0.13303	-0.584857	0.546207	0.757809	0.798549	0	0
0.21	-2.39729	1.50818	-2.09893	0.667238	-0.587276	0.96106	0.47192	-0.248231	-0.169864	0.831187	0.0769657	0	0	-0.106623	0.159678	-0.021264	0.144334	0.186125	0	0	-0.172501	-0.132015	-0.227363	-0.0550072	-0.121359	-0.139466	0.304541	1.34212	0	0	-0.117508	-0.58344	0.550883	0.754244	0.799864	0	0
0.22	-2.44148	1.50726	-2.05585	0.667519	-0.577171	0.960338	0.477548	-0.247791	-0.180914	0.787479	0.0808883	0	0	-0.125032	0.15579	-0.0168343	0.135827	0.190733	0	0	-0.181366	-0.131046	-0.22279	-0.0516809	-0.121182	-0.133764	0.303994	1.33475	0	0	-0.103124	-0.581046	0.554978	0.749373	0.799406	0	0
0.23	-2.47554	1.50816	-2.02725	0.667981	-0.567508	0.95947	0.505414	-0.252789	-0.200127	0.792176	0.0311752	0	0	-0.139672	0.152314	-0.0158911	0.128901	0.195697	0	0	-0.188832	-0.12945	-0.214486	-0.0464295	-0.121889	-0.128197	0.302495	1.32746	0	0	-0.0880698	-0.577142	0.558491	0.744309	0.797569	0	0
0.24	-2.514	1.50766	-1.99183	0.668483	-0.557123	0.958533	0.509349	-0.251113	-0.216415	0.747775	0.038827	0	0	-0.155919	0.148204	-0.0149644	0.123823	0.202504	0	0	-0.196273	-0.128705	-0.209333	-0.0430395	-0.121599	-0.122797	0.301657	1.32065	0	0	-0.0768256	-0.57514	0.561929	0.742235	0.795659	0	0
0.25	-2.59942	1.50295	-1.9061	0.668894	-0.545864	0.957863	0.484466	-0.240745	-0.229434	0.651712	0.0953427	0	0	-0.17955	0.141433	-0.0121197	0.11708	0.209794	0	0	-0.207945	-0.126338	-0.20631	-0.0342256	-0.114353	-0.181896	0.286932	1.39929	0	0	-0.0663129	-0.574116	0.567658	0.740645	0.793379	0	0
0.26	-2.63159	1.50657	-1.88149	0.669593	-0.535766	0.956507	0.51091	-0.242	-0.252678	0.653983	0.0564719	0	0	-0.18774	0.137168	-0.0165451	0.117354	0.218331	0	0	-0.21047	-0.124145	-0.198605	-0.0383579	-0.123153	-0.0889465	0.302579	1.27585	0	0	-0.0555511	-0.568566	0.569728	0.733161	0.791347	0	0
